<svg width="18" height="14" viewBox="0 0 18 14" fill="none" xmlns="http://www.w3.org/2000/svg">
<path d="M15.2477 1.1725C14.0825 0.62475 12.8367 0.22667 11.5342 0C11.3742 0.290583 11.1873 0.681424 11.0585 0.992336C9.67387 0.783119 8.30201 0.783119 6.94287 0.992336C6.81404 0.681424 6.62292 0.290583 6.46152 0C5.15761 0.22667 3.91032 0.626212 2.74514 1.1754C0.394982 4.74369 -0.242108 8.22334 0.0764375 11.6536C1.63519 12.8232 3.14581 13.5336 4.63093 13.9986C4.99762 13.4915 5.32465 12.9525 5.60638 12.3844C5.06981 12.1795 4.5559 11.9267 4.07031 11.6333C4.19913 11.5374 4.32514 11.4371 4.44689 11.334C7.40865 12.7258 10.6267 12.7258 13.5531 11.334C13.6762 11.4371 13.8022 11.5374 13.9296 11.6333C13.4426 11.9282 12.9273 12.181 12.3907 12.3859C12.6725 12.9525 12.9981 13.493 13.3662 14C14.8527 13.5351 16.3647 12.8246 17.9235 11.6536C18.2973 7.67706 17.285 4.22936 15.2477 1.1725ZM6.00988 9.54402C5.12079 9.54402 4.39166 8.71005 4.39166 7.69449C4.39166 6.67892 5.10522 5.84352 6.00988 5.84352C6.91457 5.84352 7.64367 6.67746 7.6281 7.69449C7.62951 8.71005 6.91457 9.54402 6.00988 9.54402ZM11.9901 9.54402C11.101 9.54402 10.3718 8.71005 10.3718 7.69449C10.3718 6.67892 11.0854 5.84352 11.9901 5.84352C12.8947 5.84352 13.6238 6.67746 13.6083 7.69449C13.6083 8.71005 12.8947 9.54402 11.9901 9.54402Z" fill="#081026"/>
</svg>
