<svg width="18" height="20" viewBox="0 0 18 20" fill="none" xmlns="http://www.w3.org/2000/svg">
<path d="M8.17911 9.39611C7.72548 9.88168 7.72548 10.6687 8.17911 11.1539C8.63238 11.6394 9.36798 11.6394 9.82125 11.1539C10.2749 10.6683 10.2749 9.88129 9.82125 9.39611C9.36762 8.91094 8.63238 8.91094 8.17911 9.39611ZM9 0.641602C4.02931 0.641602 0 4.95457 0 10.2752C0 15.5958 4.02931 19.9088 9 19.9088C13.9707 19.9088 18 15.5958 18 10.2752C18 4.95457 13.9707 0.641602 9 0.641602ZM13.5777 6.39261L11.1836 11.9999C11.0678 12.2711 10.8646 12.4885 10.6113 12.6125L5.37315 15.1751C4.76891 15.4707 4.14617 14.8041 4.42234 14.1574L6.81677 8.55007C6.93257 8.2789 7.13573 8.06143 7.38907 7.93748L12.6272 5.37487C13.2315 5.07965 13.8538 5.74584 13.5777 6.39261Z" fill="#A7A7A7"/>
</svg>
